# xmcd
#
# Track frame offsets: 
#        150
#        19819
#        40133
#        62597
#        79520
#        94800
#        113533
#        132638
#        158334
#        178846
#        191270
#        205342
#        237238
#        256361
#        265935
#        278924
#        295119
#        322361
#        342784
#
# Disc length: 4785 seconds
#
# Revision: 0
# Processed by: cddbd v1.5.2PL0 Copyright (c) Steve Scherf et al.
# Submitted via: ExactAudioCopy v1.1
#
DISCID=0f12af13
DTITLE=Various Artist - Addicted To Love Wollume 3
DYEAR=2000
DGENRE=Pop
TTITLE0=Robert Palmer - Addicted To Love
TTITLE1=The Jeff Healey Band - I Think I Love You Too Much
TTITLE2=Steve Winwood - Higher Love
TTITLE3=David Bowie - Space Oddity
TTITLE4=Stealers Wheel - Stuck In The Middle With You
TTITLE5=Cream - Sunshine Of Your Love
TTITLE6=Roger Daltrey - Say It Ain't So Joe
TTITLE7=Giant - I'm A Believer
TTITLE8=Alannah Myles - Our World Our Times
TTITLE9=David Lee Roth - California Girls
TTITLE10=Climax Blues Band - Couldn't Get It Right
TTITLE11=The Allman Brothers Band - Jessica
TTITLE12=Humble Pie - Natural Born Boogie
TTITLE13=Chuck Berry - Beautiful Delilah
TTITLE14=The Spencer Davis Group - Gimme Some Lovin'
TTITLE15=Tony Joe White - Love MD
TTITLE16=Grace Jones - Love Is The Drug
TTITLE17=Paul Rodgers - Feel Like Makin' Love
TTITLE18=Wolle feat Jay - Get Up And Boogie
EXTD=
EXTT0=
EXTT1=
EXTT2=
EXTT3=
EXTT4=
EXTT5=
EXTT6=
EXTT7=
EXTT8=
EXTT9=
EXTT10=
EXTT11=
EXTT12=
EXTT13=
EXTT14=
EXTT15=
EXTT16=
EXTT17=
EXTT18=
PLAYORDER=
